# Wavefront Obj file
# 
# verts: 146 uv-s: 408
mtllib polig.mtl

g Куб.001_Куб.005
#pivot 0.000000 0.000000 0.000000

v -0.723468 -0.294810 0.597893
v -0.723468 0.280810 0.597893
v -0.723468 -0.294810 0.577893
v -0.723468 0.280810 0.577893
v 0.027243 -0.294810 0.597893
v 0.027243 0.280810 0.597893
v 0.027243 -0.294810 0.577893
v 0.027243 0.280810 0.577893
# 8 positions

vt 0.806841 0.658459
vt 0.699167 0.658459
vt 0.699167 0.662201
vt 0.806841 0.662201
vt 0.875401 0.097127
vt 0.767726 0.097127
vt 0.767726 0.237554
vt 0.875401 0.237554
vt 0.120694 0.746301
vt 0.228369 0.746301
vt 0.228369 0.750043
vt 0.120694 0.750043
vt 0.691147 0.787009
vt 0.583472 0.787009
vt 0.583472 0.927435
vt 0.691147 0.927435
vt 0.818602 0.387528
vt 0.818602 0.247101
vt 0.814861 0.247101
vt 0.814861 0.387528
vt 0.827716 0.387528
vt 0.827716 0.247101
vt 0.831457 0.247101
vt 0.831457 0.387528
# 24 texture coordinates

vn -1.000000 0.000000 0.000000
vn 0.000000 0.000000 -1.000000
vn 1.000000 0.000000 0.000000
vn 0.000000 0.000000 1.000000
vn 0.000000 -1.000000 0.000000
vn 0.000000 1.000000 0.000000
# 6 normals

usemtl None
f 1/1/1 2/2/1 4/3/1 3/4/1
f 3/5/2 4/6/2 8/7/2 7/8/2
f 7/9/3 8/10/3 6/11/3 5/12/3
f 5/13/4 6/14/4 2/15/4 1/16/4
f 3/17/5 7/18/5 5/19/5 1/20/5
f 8/21/6 4/22/6 2/23/6 6/24/6

g Куб.002_Куб.006
#pivot 0.000000 0.000000 0.000000

v 0.328909 -0.294810 0.597893
v 0.328909 0.280810 0.597893
v 0.328909 -0.294810 0.577893
v 0.328909 0.280810 0.577893
v 0.778454 -0.294810 0.597893
v 0.778454 0.280810 0.597893
v 0.778454 -0.294810 0.577893
v 0.778454 0.280810 0.577893
# 8 positions

vt 0.806841 0.671314
vt 0.699167 0.671314
vt 0.699167 0.675056
vt 0.806841 0.675056
vt 0.228369 0.810576
vt 0.120694 0.810576
vt 0.120694 0.894667
vt 0.228369 0.894667
vt 0.236389 0.746301
vt 0.344063 0.746301
vt 0.344063 0.750043
vt 0.236389 0.750043
vt 0.875401 0.005000
vt 0.767726 0.005000
vt 0.767726 0.089091
vt 0.875401 0.089091
vt 0.540078 0.391182
vt 0.540078 0.307091
vt 0.536337 0.307091
vt 0.536337 0.391182
vt 0.377793 0.401895
vt 0.377793 0.317804
vt 0.381534 0.317804
vt 0.381534 0.401895
# 24 texture coordinates

vn -1.000000 0.000000 0.000000
vn 0.000000 0.000000 -1.000000
vn 1.000000 0.000000 0.000000
vn 0.000000 0.000000 1.000000
vn 0.000000 -1.000000 0.000000
vn 0.000000 1.000000 0.000000
# 6 normals

usemtl None
f 9/25/7 10/26/7 12/27/7 11/28/7
f 11/29/8 12/30/8 16/31/8 15/32/8
f 15/33/9 16/34/9 14/35/9 13/36/9
f 13/37/10 14/38/10 10/39/10 9/40/10
f 11/41/11 15/42/11 13/43/11 9/44/11
f 16/45/12 12/46/12 10/47/12 14/48/12

g Куб.003_Куб.007
#pivot 0.000000 0.000000 0.000000

v -0.055581 -0.294810 0.310310
v -0.055581 0.280810 0.310310
v -0.055581 -0.294810 0.290310
v -0.055581 0.280810 0.290310
v 0.393964 -0.294810 0.310310
v 0.393964 0.280810 0.310310
v 0.393964 -0.294810 0.290310
v 0.393964 0.280810 0.290310
# 8 positions

vt 0.228369 0.733447
vt 0.120694 0.733447
vt 0.120694 0.737188
vt 0.228369 0.737188
vt 0.691147 0.609182
vt 0.583472 0.609182
vt 0.583472 0.693273
vt 0.691147 0.693273
vt 0.005000 0.746301
vt 0.112674 0.746301
vt 0.112674 0.750043
vt 0.005000 0.750043
vt 0.459758 0.534195
vt 0.352083 0.534195
vt 0.352083 0.618286
vt 0.459758 0.618286
vt 0.394389 0.384755
vt 0.394389 0.300664
vt 0.390648 0.300664
vt 0.390648 0.384755
vt 0.403503 0.384755
vt 0.403503 0.300664
vt 0.407244 0.300664
vt 0.407244 0.384755
# 24 texture coordinates

vn -1.000000 0.000000 0.000000
vn 0.000000 0.000000 -1.000000
vn 1.000000 0.000000 0.000000
vn 0.000000 0.000000 1.000000
vn 0.000000 -1.000000 0.000000
vn 0.000000 1.000000 0.000000
# 6 normals

usemtl None
f 17/49/13 18/50/13 20/51/13 19/52/13
f 19/53/14 20/54/14 24/55/14 23/56/14
f 23/57/15 24/58/15 22/59/15 21/60/15
f 21/61/16 22/62/16 18/63/16 17/64/16
f 19/65/17 23/66/17 21/67/17 17/68/17
f 24/69/18 20/70/18 18/71/18 22/72/18

g Куб.004_Куб.008
#pivot 0.000000 0.000000 0.000000

v 0.381551 -0.294810 0.028848
v 0.381551 0.280810 0.028848
v 0.381551 -0.294810 0.008848
v 0.381551 0.280810 0.008848
v 0.780573 -0.294810 0.028848
v 0.780573 0.280810 0.028848
v 0.780573 -0.294810 0.008848
v 0.780573 0.280810 0.008848
# 8 positions

vt 0.344063 0.733447
vt 0.236389 0.733447
vt 0.236389 0.737188
vt 0.344063 0.737188
vt 0.806841 0.574902
vt 0.699167 0.574902
vt 0.699167 0.649543
vt 0.806841 0.649543
vt 0.352083 0.639177
vt 0.459758 0.639177
vt 0.459758 0.642918
vt 0.352083 0.642918
vt 0.806842 0.491345
vt 0.699167 0.491345
vt 0.699167 0.565986
vt 0.806842 0.565986
vt 0.355825 0.375304
vt 0.355825 0.300664
vt 0.352083 0.300664
vt 0.352083 0.375304
vt 0.364938 0.383874
vt 0.364938 0.309234
vt 0.368680 0.309234
vt 0.368680 0.383874
# 24 texture coordinates

vn -1.000000 0.000000 0.000000
vn 0.000000 0.000000 -1.000000
vn 1.000000 0.000000 0.000000
vn 0.000000 0.000000 1.000000
vn 0.000000 -1.000000 0.000000
vn 0.000000 1.000000 0.000000
# 6 normals

usemtl None
f 25/73/19 26/74/19 28/75/19 27/76/19
f 27/77/20 28/78/20 32/79/20 31/80/20
f 31/81/21 32/82/21 30/83/21 29/84/21
f 29/85/22 30/86/22 26/87/22 25/88/22
f 27/89/23 31/90/23 29/91/23 25/92/23
f 32/93/24 28/94/24 26/95/24 30/96/24

g Куб.005_Куб.009
#pivot 0.000000 0.000000 0.000000

v -0.473678 -0.294810 0.596194
v -0.473678 0.280810 0.596194
v -0.453678 -0.294810 0.596194
v -0.453678 0.280810 0.596194
v -0.473678 -0.294810 0.847257
v -0.473678 0.280810 0.847257
v -0.453678 -0.294810 0.847257
v -0.453678 0.280810 0.847257
# 8 positions

vt 0.112675 0.733447
vt 0.005000 0.733447
vt 0.005000 0.737188
vt 0.112675 0.737188
vt 0.352083 0.652032
vt 0.459758 0.652032
vt 0.459758 0.698995
vt 0.352083 0.698995
vt 0.691146 0.701309
vt 0.583472 0.701309
vt 0.583472 0.705050
vt 0.691146 0.705050
vt 0.459758 0.707737
vt 0.352083 0.707737
vt 0.352083 0.754700
vt 0.459758 0.754700
vt 0.399047 0.409931
vt 0.352083 0.409931
vt 0.352083 0.413672
vt 0.399047 0.413672
vt 0.746131 0.482231
vt 0.699167 0.482231
vt 0.699167 0.478490
vt 0.746131 0.478490
# 24 texture coordinates

vn 0.000000 0.000000 -1.000000
vn 1.000000 0.000000 0.000000
vn 0.000000 0.000000 1.000000
vn -1.000000 0.000000 0.000000
vn 0.000000 -1.000000 0.000000
vn 0.000000 1.000000 0.000000
# 6 normals

usemtl None
f 33/97/25 34/98/25 36/99/25 35/100/25
f 35/101/26 36/102/26 40/103/26 39/104/26
f 39/105/27 40/106/27 38/107/27 37/108/27
f 37/109/28 38/110/28 34/111/28 33/112/28
f 35/113/29 39/114/29 37/115/29 33/116/29
f 40/117/30 36/118/30 34/119/30 38/120/30

g Куб.006_Куб.010
#pivot 0.000000 0.000000 0.000000

v 0.144581 -0.294810 -0.246265
v 0.144581 0.280810 -0.246265
v 0.164581 -0.294810 -0.246265
v 0.164581 0.280810 -0.246265
v 0.144581 -0.294810 0.293189
v 0.144581 0.280810 0.293189
v 0.164581 -0.294810 0.293189
v 0.164581 0.280810 0.293189
# 8 positions

vt 0.459757 0.626322
vt 0.352083 0.626322
vt 0.352083 0.630063
vt 0.459757 0.630063
vt 0.467778 0.424928
vt 0.575453 0.424928
vt 0.575453 0.525837
vt 0.467778 0.525837
vt 0.691146 0.714164
vt 0.583472 0.714164
vt 0.583472 0.717905
vt 0.691146 0.717905
vt 0.459758 0.424928
vt 0.352083 0.424928
vt 0.352083 0.525837
vt 0.459758 0.525837
vt 0.105909 0.720592
vt 0.005000 0.720592
vt 0.005000 0.724333
vt 0.105909 0.724333
vt 0.215176 0.724333
vt 0.114267 0.724333
vt 0.114267 0.720592
vt 0.215176 0.720592
# 24 texture coordinates

vn 0.000000 0.000000 -1.000000
vn 1.000000 0.000000 0.000000
vn 0.000000 0.000000 1.000000
vn -1.000000 0.000000 0.000000
vn 0.000000 -1.000000 0.000000
vn 0.000000 1.000000 0.000000
# 6 normals

usemtl None
f 41/121/31 42/122/31 44/123/31 43/124/31
f 43/125/32 44/126/32 48/127/32 47/128/32
f 47/129/33 48/130/33 46/131/33 45/132/33
f 45/133/34 46/134/34 42/135/34 41/136/34
f 43/137/35 47/138/35 45/139/35 41/140/35
f 48/141/36 44/142/36 42/143/36 46/144/36

g Куб.007_Куб.011
#pivot 0.000000 0.000000 0.000000

v -0.268230 -0.294810 0.028848
v -0.268230 0.280810 0.028848
v -0.268230 -0.294810 0.008848
v -0.268230 0.280810 0.008848
v 0.147807 -0.294810 0.028848
v 0.147807 0.280810 0.028848
v 0.147807 -0.294810 0.008848
v 0.147807 0.280810 0.008848
# 8 positions

vt 0.331209 0.720592
vt 0.223534 0.720592
vt 0.223534 0.724333
vt 0.331209 0.724333
vt 0.806840 0.307091
vt 0.699167 0.307091
vt 0.699167 0.384914
vt 0.806840 0.384914
vt 0.583472 0.727019
vt 0.691147 0.727019
vt 0.691147 0.730760
vt 0.583472 0.730760
vt 0.806840 0.392791
vt 0.699167 0.392791
vt 0.699167 0.470614
vt 0.806840 0.470614
vt 0.550791 0.926964
vt 0.550791 0.849141
vt 0.547050 0.849141
vt 0.547050 0.926964
vt 0.562047 0.926964
vt 0.562047 0.849141
vt 0.565789 0.849141
vt 0.565789 0.926964
# 24 texture coordinates

vn -1.000000 0.000000 0.000000
vn 0.000000 0.000000 -1.000000
vn 1.000000 0.000000 0.000000
vn 0.000000 0.000000 1.000000
vn 0.000000 -1.000000 0.000000
vn 0.000000 1.000000 0.000000
# 6 normals

usemtl None
f 49/145/37 50/146/37 52/147/37 51/148/37
f 51/149/38 52/150/38 56/151/38 55/152/38
f 55/153/39 56/154/39 54/155/39 53/156/39
f 53/157/40 54/158/40 50/159/40 49/160/40
f 51/161/41 55/162/41 53/163/41 49/164/41
f 56/165/42 52/166/42 50/167/42 54/168/42

g Куб.008_Куб.012
#pivot 0.000000 0.000000 0.000000

v 0.491373 -0.294810 -0.798038
v 0.491373 0.280810 -0.798038
v 0.511373 -0.294810 -0.798038
v 0.511373 0.280810 -0.798038
v 0.491373 -0.294810 -0.348493
v 0.491373 0.280810 -0.348493
v 0.511373 -0.294810 -0.348493
v 0.511373 0.280810 -0.348493
# 8 positions

vt 0.228368 0.902703
vt 0.120694 0.902703
vt 0.120694 0.906444
vt 0.228368 0.906444
vt 0.699167 0.787009
vt 0.806840 0.787009
vt 0.806840 0.871100
vt 0.699167 0.871100
vt 0.898968 0.720592
vt 0.791294 0.720592
vt 0.791294 0.724333
vt 0.898968 0.724333
vt 0.112674 0.810576
vt 0.005000 0.810576
vt 0.005000 0.894667
vt 0.112674 0.894667
vt 0.783258 0.684169
vt 0.699167 0.684169
vt 0.699167 0.687910
vt 0.783258 0.687910
vt 0.783258 0.724333
vt 0.699167 0.724333
vt 0.699167 0.720592
vt 0.783258 0.720592
# 24 texture coordinates

vn 0.000000 0.000000 -1.000000
vn 1.000000 0.000000 0.000000
vn 0.000000 0.000000 1.000000
vn -1.000000 0.000000 0.000000
vn 0.000000 -1.000000 0.000000
vn 0.000000 1.000000 0.000000
# 6 normals

usemtl None
f 57/169/43 58/170/43 60/171/43 59/172/43
f 59/173/44 60/174/44 64/175/44 63/176/44
f 63/177/45 64/178/45 62/179/45 61/180/45
f 61/181/46 62/182/46 58/183/46 57/184/46
f 59/185/47 63/186/47 61/187/47 57/188/47
f 64/189/48 60/190/48 58/191/48 62/192/48

g Куб.009_Куб.013
#pivot 0.000000 0.000000 0.000000

v 0.164557 -0.294810 -0.778113
v 0.164557 0.280810 -0.778113
v 0.164557 -0.294810 -0.798113
v 0.164557 0.280810 -0.798113
v 0.491555 -0.294810 -0.778113
v 0.491555 0.280810 -0.778113
v 0.491555 -0.294810 -0.798113
v 0.491555 0.280810 -0.798113
# 8 positions

vt 0.344063 0.810576
vt 0.236389 0.810576
vt 0.236389 0.814317
vt 0.344063 0.814317
vt 0.459757 0.810576
vt 0.352083 0.810576
vt 0.352083 0.871744
vt 0.459757 0.871744
vt 0.467778 0.836286
vt 0.575452 0.836286
vt 0.575452 0.840027
vt 0.467778 0.840027
vt 0.922537 0.787009
vt 0.814861 0.787009
vt 0.814861 0.848176
vt 0.922537 0.848176
vt 0.552934 0.368259
vt 0.552934 0.307091
vt 0.549192 0.307091
vt 0.549192 0.368259
vt 0.562047 0.368259
vt 0.562047 0.307091
vt 0.565789 0.307091
vt 0.565789 0.368259
# 24 texture coordinates

vn -1.000000 0.000000 0.000000
vn 0.000000 0.000000 -1.000000
vn 1.000000 0.000000 0.000000
vn 0.000000 0.000000 1.000000
vn 0.000000 -1.000000 0.000000
vn 0.000000 1.000000 0.000000
# 6 normals

usemtl None
f 65/193/49 66/194/49 68/195/49 67/196/49
f 67/197/50 68/198/50 72/199/50 71/200/50
f 71/201/51 72/202/51 70/203/51 69/204/51
f 69/205/52 70/206/52 66/207/52 65/208/52
f 67/209/53 71/210/53 69/211/53 65/212/53
f 72/213/54 68/214/54 66/215/54 70/216/54

g Куб.010_Куб.014
#pivot 0.000000 0.000000 0.000000

v -0.073495 -0.294810 -0.787121
v -0.073495 0.280810 -0.787121
v -0.062024 -0.294810 -0.770738
v -0.062024 0.280810 -0.770738
v -0.441741 -0.294810 -0.529273
v -0.441741 0.280810 -0.529273
v -0.430270 -0.294810 -0.512890
v -0.430270 0.280810 -0.512890
v -0.155042 -0.072167 -0.705606
v -0.155042 0.096017 -0.705606
v -0.346386 -0.072167 -0.571625
v -0.346386 0.096017 -0.571625
v -0.357858 -0.072167 -0.588009
v -0.357858 0.096017 -0.588009
v -0.166513 -0.072167 -0.721990
v -0.166513 0.096017 -0.721990
# 16 positions

vt 0.469924 0.956815
vt 0.469924 0.849141
vt 0.467778 0.849141
vt 0.467778 0.956815
vt 0.868491 0.930818
vt 0.885890 0.965385
vt 0.817007 0.965385
vt 0.832698 0.930818
vt 0.817007 0.857711
vt 0.885890 0.857711
vt 0.868491 0.899358
vt 0.832698 0.899358
vt 0.814861 0.965385
vt 0.814861 0.857711
vt 0.523116 0.883708
vt 0.538806 0.849141
vt 0.487323 0.883708
vt 0.538806 0.956815
vt 0.523116 0.915168
vt 0.487323 0.915168
vt 0.933796 0.600612
vt 0.885563 0.669496
vt 0.888629 0.671641
vt 0.936859 0.602758
vt 0.936859 0.630610
vt 0.888629 0.699494
vt 0.885563 0.697348
vt 0.933796 0.628465
vt 0.866345 0.899358
vt 0.866345 0.930818
vt 0.520970 0.883708
vt 0.520970 0.915168
vt 0.563542 0.377793
vt 0.538480 0.413586
vt 0.541545 0.415732
vt 0.566607 0.379939
vt 0.792789 0.247101
vt 0.795854 0.249247
vt 0.770792 0.285040
vt 0.767726 0.282894
# 40 texture coordinates

vn 0.819160 0.000000 -0.573565
vn 0.573575 0.000001 0.819153
vn -0.819172 0.000000 0.573548
vn -0.573575 0.000001 -0.819153
vn 0.000000 -1.000000 0.000000
vn 0.000000 1.000000 0.000000
# 6 normals

usemtl None
f 73/217/55 74/218/55 76/219/55 75/220/55
f 82/221/56 76/222/56 80/223/56 84/224/56
f 80/223/56 79/225/56 75/226/56 76/222/56 82/221/56 81/227/56 83/228/56 84/224/56
f 79/225/57 80/223/57 78/229/57 77/230/57
f 86/231/58 78/232/58 74/218/58 88/233/58
f 74/218/58 73/217/58 77/234/58 78/232/58 86/231/58 85/235/58 87/236/58 88/233/58
f 75/237/59 79/238/59 77/239/59 73/240/59
f 80/241/60 76/242/60 74/243/60 78/244/60
f 87/245/57 81/227/57 82/221/57 88/246/57
f 86/231/55 84/247/55 83/248/55 85/235/55
f 82/249/59 84/250/59 86/251/59 88/252/59
f 85/253/60 83/254/60 81/255/60 87/256/60

g Цилиндр.001_Цилиндр
#pivot 0.000000 0.000000 0.000000

v -0.436452 -0.295232 -0.301811
v -0.436452 0.281232 -0.301811
v -0.441348 -0.295232 -0.252099
v -0.441348 0.281232 -0.252099
v -0.455849 -0.295232 -0.204298
v -0.455849 0.281232 -0.204298
v -0.479396 -0.295232 -0.160245
v -0.479396 0.281232 -0.160245
v -0.511085 -0.295232 -0.121632
v -0.511085 0.281232 -0.121632
v -0.549698 -0.295232 -0.089943
v -0.549698 0.281232 -0.089943
v -0.593752 -0.295232 -0.066395
v -0.593752 0.281232 -0.066395
v -0.641553 -0.295232 -0.051895
v -0.641553 0.281232 -0.051895
v -0.436452 0.281232 -0.301811
v -0.436452 -0.295232 -0.301811
v -0.691264 0.281232 -0.046999
v -0.691264 -0.295232 -0.046999
v -0.691264 0.281232 -0.301811
v -0.691264 -0.295232 -0.301811
# 22 positions

vt 0.894133 0.905376
vt 0.894133 0.905376
vt 0.894133 0.905376
vt 0.894133 0.905376
vt 0.840571 0.307091
vt 0.948404 0.307091
vt 0.948404 0.316390
vt 0.840571 0.316390
vt 0.948404 0.325332
vt 0.840571 0.325332
vt 0.948404 0.333572
vt 0.840571 0.333572
vt 0.948404 0.340795
vt 0.840571 0.340795
vt 0.919268 0.429213
vt 0.919268 0.537045
vt 0.912045 0.537045
vt 0.912045 0.429213
vt 0.903804 0.537045
vt 0.903804 0.429213
vt 0.894863 0.537045
vt 0.894863 0.429213
vt 0.885563 0.537045
vt 0.885563 0.429213
vt 0.894133 0.857711
vt 0.941798 0.857711
vt 0.940882 0.867010
vt 0.938170 0.875951
vt 0.933764 0.884192
vt 0.927838 0.891415
vt 0.920615 0.897343
vt 0.912374 0.901747
vt 0.903433 0.904460
vt 0.933228 0.544907
vt 0.923929 0.545823
vt 0.914988 0.548536
vt 0.906747 0.552940
vt 0.899524 0.558868
vt 0.893597 0.566091
vt 0.889192 0.574332
vt 0.886480 0.583273
vt 0.885563 0.592572
vt 0.933228 0.592572
vt 0.933228 0.544907
vt 0.840571 0.349941
vt 0.840571 0.397606
vt 0.948404 0.397606
vt 0.948404 0.349941
vt 0.352083 0.881278
vt 0.352083 0.928943
vt 0.459913 0.928943
vt 0.459913 0.881278
# 52 texture coordinates

vn 0.000000 1.000000 0.000000
vn 0.995185 0.000000 0.098013
vn 0.956936 0.000000 0.290299
vn 0.881920 0.000000 0.471399
vn 0.773009 0.000000 0.634395
vn 0.634395 0.000000 0.773009
vn 0.471407 0.000000 0.881916
vn 0.290280 0.000000 0.956942
vn 0.098015 0.000000 0.995185
vn 0.000000 1.000000 0.000000
vn 0.000000 -1.000000 0.000000
vn -1.000000 0.000000 0.000000
vn 0.000000 0.000000 -1.000000
# 13 normals

usemtl None
f 90/257/61 89/258/61 106/259/61 105/260/61
f 89/261/62 90/262/62 92/263/62 91/264/62
f 91/264/63 92/263/63 94/265/63 93/266/63
f 93/266/64 94/265/64 96/267/64 95/268/64
f 95/268/65 96/267/65 98/269/65 97/270/65
f 97/271/66 98/272/66 100/273/66 99/274/66
f 99/274/67 100/273/67 102/275/67 101/276/67
f 101/276/68 102/275/68 104/277/68 103/278/68
f 103/278/69 104/277/69 107/279/69 108/280/69
f 109/281/70 107/282/70 104/283/70 102/284/70 100/285/70 98/286/70 96/287/70 94/288/70 92/289/70 90/257/70 105/260/70
f 89/290/71 91/291/71 93/292/71 95/293/71 97/294/71 99/295/71 101/296/71 103/297/71 108/298/71 110/299/71 106/300/71
f 107/301/72 109/302/72 110/303/72 108/304/72
f 109/305/73 105/306/73 106/307/73 110/308/73

g Плоскость_Плоскость.001
#pivot 0.000000 0.000000 0.000000

v -0.769824 -0.295000 1.089000
v 0.769824 -0.295000 1.089000
v -0.769824 -0.295000 -1.089000
v 0.769824 -0.295000 -1.089000
# 4 positions

vt 0.412413 0.005000
vt 0.412413 0.293004
vt 0.005000 0.293004
vt 0.005000 0.005000
# 4 texture coordinates

vn 0.000000 1.000000 0.000000
# 1 normals

usemtl None
f 111/309/74 112/310/74 114/311/74 113/312/74

g Куб
#pivot 0.000000 0.000000 0.000000

v -0.770000 -0.295000 1.100000
v -0.770000 0.281000 1.100000
v -0.770000 -0.295000 -1.100000
v -0.770000 0.281000 -1.100000
v -0.690000 -0.295000 1.100000
v -0.690000 0.281000 1.100000
v -0.690000 -0.295000 -1.100000
v -0.690000 0.281000 -1.100000
# 8 positions

vt 0.528389 0.005000
vt 0.420643 0.005000
vt 0.420643 0.416528
vt 0.528389 0.416528
vt 0.806913 0.902703
vt 0.699167 0.902703
vt 0.699167 0.917668
vt 0.806913 0.917668
vt 0.005000 0.300664
vt 0.112746 0.300664
vt 0.112746 0.712192
vt 0.005000 0.712192
vt 0.806910 0.697024
vt 0.699167 0.697024
vt 0.699167 0.711989
vt 0.806910 0.711989
vt 0.416528 0.778406
vt 0.416528 0.763441
vt 0.005000 0.763441
vt 0.005000 0.778406
vt 0.583472 0.754839
vt 0.583472 0.739874
vt 0.995000 0.739874
vt 0.995000 0.754839
# 24 texture coordinates

vn -1.000000 0.000000 0.000000
vn 0.000000 0.000000 -1.000000
vn 1.000000 0.000000 0.000000
vn 0.000000 0.000000 1.000000
vn 0.000000 -1.000000 0.000000
vn 0.000000 1.000000 0.000000
# 6 normals

usemtl None
f 115/313/75 116/314/75 118/315/75 117/316/75
f 117/317/76 118/318/76 122/319/76 121/320/76
f 121/321/77 122/322/77 120/323/77 119/324/77
f 119/325/78 120/326/78 116/327/78 115/328/78
f 117/329/79 121/330/79 119/331/79 115/332/79
f 122/333/80 118/334/80 116/335/80 120/336/80

g Куб.011_Куб.001
#pivot 0.000000 0.000000 0.000000

v 0.720000 -0.295000 1.100000
v 0.720000 0.281000 1.100000
v 0.720000 -0.295000 -1.100000
v 0.720000 0.281000 -1.100000
v 0.800000 -0.295000 1.100000
v 0.800000 0.281000 1.100000
v 0.800000 -0.295000 -1.100000
v 0.800000 0.281000 -1.100000
# 8 positions

vt 0.228440 0.300664
vt 0.120694 0.300664
vt 0.120694 0.712192
vt 0.228440 0.712192
vt 0.344135 0.823431
vt 0.236389 0.823431
vt 0.236389 0.838396
vt 0.344135 0.838396
vt 0.236389 0.300664
vt 0.344135 0.300664
vt 0.344135 0.712192
vt 0.236389 0.712192
vt 0.344135 0.846999
vt 0.236389 0.846999
vt 0.236389 0.861963
vt 0.344135 0.861963
vt 0.995000 0.778406
vt 0.995000 0.763441
vt 0.583472 0.763441
vt 0.583472 0.778406
vt 0.005000 0.801973
vt 0.005000 0.787009
vt 0.416528 0.787009
vt 0.416528 0.801973
# 24 texture coordinates

vn -1.000000 0.000000 0.000000
vn 0.000000 0.000000 -1.000000
vn 1.000000 0.000000 0.000000
vn 0.000000 0.000000 1.000000
vn 0.000000 -1.000000 0.000000
vn 0.000000 1.000000 0.000000
# 6 normals

usemtl None
f 123/337/81 124/338/81 126/339/81 125/340/81
f 125/341/82 126/342/82 130/343/82 129/344/82
f 129/345/83 130/346/83 128/347/83 127/348/83
f 127/349/84 128/350/84 124/351/84 123/352/84
f 125/353/85 129/354/85 127/355/85 123/356/85
f 130/357/86 126/358/86 124/359/86 128/360/86

g Куб.013_Куб.003
#pivot 0.000000 0.000000 0.000000

v -0.773000 -0.295000 1.020000
v -0.773000 0.281000 1.020000
v 0.793000 -0.295000 1.020000
v 0.793000 0.281000 1.020000
v -0.773000 -0.295000 1.100000
v -0.773000 0.281000 1.100000
v 0.793000 -0.295000 1.100000
v 0.793000 0.281000 1.100000
# 8 positions

vt 0.644081 0.005000
vt 0.536337 0.005000
vt 0.536337 0.297933
vt 0.644081 0.297933
vt 0.236389 0.870566
vt 0.344135 0.870566
vt 0.344135 0.885531
vt 0.236389 0.885531
vt 0.691218 0.307091
vt 0.583472 0.307091
vt 0.583472 0.600024
vt 0.691218 0.600024
vt 0.806913 0.879136
vt 0.699167 0.879136
vt 0.699167 0.894101
vt 0.806913 0.894101
vt 0.829827 0.397076
vt 0.814861 0.397076
vt 0.814861 0.690009
vt 0.829827 0.690009
vt 0.853395 0.700721
vt 0.838429 0.700721
vt 0.838429 0.407788
vt 0.853395 0.407788
# 24 texture coordinates

vn 0.000000 0.000000 -1.000000
vn 1.000000 0.000000 0.000000
vn 0.000000 0.000000 1.000000
vn -1.000000 0.000000 0.000000
vn 0.000000 -1.000000 0.000000
vn 0.000000 1.000000 0.000000
# 6 normals

usemtl None
f 131/361/87 132/362/87 134/363/87 133/364/87
f 133/365/88 134/366/88 138/367/88 137/368/88
f 137/369/89 138/370/89 136/371/89 135/372/89
f 135/373/90 136/374/90 132/375/90 131/376/90
f 133/377/91 137/378/91 135/379/91 131/380/91
f 138/381/92 134/382/92 132/383/92 136/384/92

g Куб.012_Куб.015
#pivot 0.000000 0.000000 0.000000

v -0.773000 -0.295000 -1.100000
v -0.773000 0.281000 -1.100000
v 0.793000 -0.295000 -1.100000
v 0.793000 0.281000 -1.100000
v -0.773000 -0.295000 -1.020000
v -0.773000 0.281000 -1.020000
v 0.793000 -0.295000 -1.020000
v 0.793000 0.281000 -1.020000
# 8 positions

vt 0.575524 0.534195
vt 0.467778 0.534195
vt 0.467778 0.827128
vt 0.575524 0.827128
vt 0.236389 0.894133
vt 0.344135 0.894133
vt 0.344135 0.909098
vt 0.236389 0.909098
vt 0.759778 0.005000
vt 0.652032 0.005000
vt 0.652032 0.297933
vt 0.759778 0.297933
vt 0.112746 0.902703
vt 0.005000 0.902703
vt 0.005000 0.917668
vt 0.112746 0.917668
vt 0.876962 0.418501
vt 0.861996 0.418501
vt 0.861996 0.711434
vt 0.876962 0.711434
vt 0.898387 0.297933
vt 0.883421 0.297933
vt 0.883421 0.005000
vt 0.898387 0.005000
# 24 texture coordinates

vn 0.000000 0.000000 -1.000000
vn 1.000000 0.000000 0.000000
vn 0.000000 0.000000 1.000000
vn -1.000000 0.000000 0.000000
vn 0.000000 -1.000000 0.000000
vn 0.000000 1.000000 0.000000
# 6 normals

usemtl None
f 139/385/93 140/386/93 142/387/93 141/388/93
f 141/389/94 142/390/94 146/391/94 145/392/94
f 145/393/95 146/394/95 144/395/95 143/396/95
f 143/397/96 144/398/96 140/399/96 139/400/96
f 141/401/97 145/402/97 143/403/97 139/404/97
f 146/405/98 142/406/98 140/407/98 144/408/98

# 104 faces
